<svg xmlns="http://www.w3.org/2000/svg" viewBox="0 0 512 512">
  <defs>
    <linearGradient id="grad1" x1="0%" y1="0%" x2="100%" y2="100%">
      <stop offset="0%" style="stop-color:#ff00ff;stop-opacity:1" />
      <stop offset="100%" style="stop-color:#00ffff;stop-opacity:1" />
    </linearGradient>
  </defs>
  
  <!-- Background -->
  <rect width="512" height="512" rx="80" fill="#0a0a0a"/>
  
  <!-- Vinyl Record -->
  <circle cx="256" cy="256" r="180" fill="url(#grad1)" opacity="0.9"/>
  <circle cx="256" cy="256" r="160" fill="#1a1a1a"/>
  <circle cx="256" cy="256" r="140" fill="url(#grad1)" opacity="0.8"/>
  <circle cx="256" cy="256" r="120" fill="#1a1a1a"/>
  <circle cx="256" cy="256" r="100" fill="url(#grad1)" opacity="0.7"/>
  <circle cx="256" cy="256" r="80" fill="#1a1a1a"/>
  <circle cx="256" cy="256" r="60" fill="url(#grad1)"/>
  <circle cx="256" cy="256" r="30" fill="#0a0a0a"/>
  
  <!-- Center dot -->
  <circle cx="256" cy="256" r="10" fill="#ff00ff"/>
  
  <!-- Grooves effect -->
  <circle cx="256" cy="256" r="110" fill="none" stroke="#ffffff" stroke-width="1" opacity="0.2"/>
  <circle cx="256" cy="256" r="130" fill="none" stroke="#ffffff" stroke-width="1" opacity="0.2"/>
  <circle cx="256" cy="256" r="150" fill="none" stroke="#ffffff" stroke-width="1" opacity="0.2"/>
  <circle cx="256" cy="256" r="170" fill="none" stroke="#ffffff" stroke-width="1" opacity="0.2"/>
  
  <!-- Music note accent -->
  <path d="M 330 180 L 330 280 Q 330 300 320 300 Q 310 300 310 290 Q 310 280 320 280 L 320 200 L 360 190 L 360 250 Q 360 270 350 270 Q 340 270 340 260 Q 340 250 350 250 L 350 180 Z" fill="#00ffff" opacity="0.8"/>
</svg>
